<?xml version="1.0" encoding="UTF-8" standalone="no"?>
<!DOCTYPE svg PUBLIC "-//W3C//DTD SVG 1.1//EN" "http://www.w3.org/Graphics/SVG/1.1/DTD/svg11.dtd">
<!-- Created with Vectornator (http://vectornator.io/) -->
<svg height="100%" stroke-miterlimit="10" style="fill-rule:nonzero;clip-rule:evenodd;stroke-linecap:round;stroke-linejoin:round;" version="1.1" viewBox="0 0 2384.24 1683.99" width="100%" xml:space="preserve" xmlns="http://www.w3.org/2000/svg" xmlns:vectornator="http://vectornator.io" xmlns:xlink="http://www.w3.org/1999/xlink">
<defs/>
<g id="Outline" vectornator:layerName="Outline">
<path d="M799.92 462.158L1584.31 1221.83" fill="none" opacity="1" stroke="#000000" stroke-linecap="round" stroke-linejoin="miter" stroke-width="5.07459"/>
<path d="M489.898 841.995C489.898 454.17 804.293 139.776 1192.12 139.776C1579.94 139.776 1894.34 454.17 1894.34 841.995C1894.34 1229.82 1579.94 1544.21 1192.12 1544.21C881.816 1544.21 618.523 1342.95 525.661 1063.84C502.461 994.108 489.898 919.518 489.898 841.995Z" fill="none" opacity="1" stroke="#000000" stroke-linecap="round" stroke-linejoin="miter" stroke-width="12.39"/>
<path d="M645.974 839.565C647.079 535.858 892.309 290.557 1193.71 291.671C1495.11 292.785 1738.55 539.891 1737.44 843.599C1736.34 1147.31 1491.11 1392.61 1189.71 1391.49C888.306 1390.38 644.868 1143.27 645.974 839.565Z" fill="none" opacity="1" stroke="#000000" stroke-linecap="round" stroke-linejoin="miter" stroke-width="5.0589"/>
<path d="M1571.95 449.798L812.281 1234.19" fill="none" opacity="1" stroke="#000000" stroke-linecap="round" stroke-linejoin="miter" stroke-width="5.07459"/>
</g>
<g id="Text" vectornator:layerName="Text">
<g fill="#000000" opacity="1" stroke="none">
<path d="M739.861 337.286L752.241 327.105L805.846 392.285L843.727 361.132L853.474 372.983L803.213 414.318L739.861 337.286Z"/>
<path d="M816.636 278.452L830.081 269.725L884.386 353.38L870.941 362.108L816.636 278.452Z"/>
<path d="M856.026 253.229L915.585 223.159L922.5 236.857L899.508 248.465L937.543 323.8L923.356 330.962L885.322 255.627L862.941 266.926L856.026 253.229Z"/>
<path d="M939.991 212.912L1003.16 191.432L1008.1 205.959L983.713 214.251L1010.88 294.15L995.838 299.266L968.667 219.367L944.931 227.439L939.991 212.912Z"/>
<path d="M1036.18 183.102L1051.94 180.18L1067.33 263.157L1115.55 254.215L1118.35 269.302L1054.37 281.167L1036.18 183.102Z"/>
<path d="M1135.74 167.738L1201.88 165.67L1202.36 181.007L1152.24 182.574L1153.07 209.139L1197.71 207.743L1198.19 223.08L1153.55 224.475L1154.4 251.588L1206.44 249.961L1206.92 265.298L1138.86 267.426L1135.74 167.738Z"/>
<path d="M1232.21 167.124L1298.52 174.524L1296.81 189.774L1271.22 186.917L1261.86 270.788L1246.06 269.025L1255.42 185.154L1230.51 182.373L1232.21 167.124Z"/>
<path d="M1310.93 226.418C1312.83 219.742 1315.89 213.823 1320.12 208.662C1324.34 203.501 1329.34 199.274 1335.12 195.98C1340.9 192.686 1347.12 190.587 1353.79 189.683C1360.45 188.778 1367.17 189.288 1373.93 191.212C1380.61 193.112 1386.55 196.2 1391.74 200.479C1396.93 204.757 1401.14 209.824 1404.36 215.679C1407.59 221.534 1409.66 227.773 1410.58 234.396C1411.49 241.019 1411 247.669 1409.1 254.346C1407.18 261.11 1404.08 267.088 1399.8 272.281C1395.52 277.473 1390.48 281.666 1384.68 284.859C1378.88 288.052 1372.66 290.057 1366.02 290.874C1359.38 291.691 1352.72 291.15 1346.04 289.25C1339.19 287.301 1333.18 284.237 1328.01 280.059C1322.83 275.881 1318.64 270.937 1315.42 265.226C1312.2 259.515 1310.16 253.333 1309.3 246.678C1308.44 240.024 1308.98 233.27 1310.93 226.418ZM1326.75 230.917C1325.4 235.66 1324.99 240.34 1325.53 244.956C1326.07 249.573 1327.43 253.877 1329.62 257.871C1331.81 261.864 1334.67 265.314 1338.21 268.22C1341.75 271.127 1345.89 273.255 1350.64 274.604C1355.21 275.904 1359.74 276.244 1364.24 275.624C1368.73 275.004 1372.92 273.56 1376.79 271.291C1380.67 269.022 1384.05 266.067 1386.93 262.425C1389.82 258.784 1391.94 254.591 1393.29 249.847C1394.66 245.016 1395.06 240.285 1394.48 235.657C1393.9 231.028 1392.56 226.708 1390.47 222.695C1388.39 218.683 1385.57 215.224 1382.03 212.317C1378.49 209.411 1374.39 207.295 1369.74 205.971C1365.08 204.646 1360.48 204.288 1355.94 204.895C1351.4 205.502 1347.16 206.956 1343.23 209.257C1339.3 211.557 1335.91 214.556 1333.05 218.254C1330.2 221.952 1328.1 226.173 1326.75 230.917Z"/>
<path d="M1490.54 353.836L1456.65 252.69L1459.91 256.534L1428.66 317.801L1414.3 310.371L1461.72 218.753L1462.45 219.131L1495.24 319.711L1492.46 317.037L1524.27 254.981L1538.38 262.286L1490.9 354.025L1490.54 353.836Z"/>
<path d="M1555.78 302.136L1551.34 294.792C1553.96 294.364 1556.68 293.127 1559.51 291.081C1562.35 289.035 1564.4 286.511 1565.68 283.511L1576.17 289.516C1575.19 291.937 1573.53 294.122 1571.2 296.073C1568.87 298.023 1566.35 299.535 1563.63 300.607C1560.91 301.679 1558.29 302.189 1555.78 302.136Z"/>
<path d="M1626.23 353.414C1624.65 349.738 1622.72 346.111 1620.47 342.532C1618.21 338.952 1615.67 336 1612.86 333.675C1609.05 330.536 1605.34 328.896 1601.73 328.756C1598.11 328.615 1595.09 330.024 1592.65 332.983C1590.9 335.096 1590.13 337.571 1590.34 340.405C1590.55 343.24 1591.38 346.242 1592.86 349.409C1594.33 352.577 1595.97 355.794 1597.77 359.06C1599.4 361.823 1600.88 364.731 1602.21 367.783C1603.54 370.834 1604.42 373.961 1604.86 377.163C1605.29 380.365 1605.01 383.653 1604 387.026C1602.99 390.398 1600.98 393.916 1597.96 397.579C1594.64 401.595 1590.6 404.447 1585.83 406.137C1581.06 407.826 1575.96 408.088 1570.53 406.921C1565.1 405.754 1559.67 402.933 1554.25 398.457C1551.01 395.783 1548.15 392.829 1545.66 389.596C1543.18 386.363 1541.07 382.996 1539.34 379.497C1537.61 375.997 1536.22 372.513 1535.18 369.045L1548.61 363.963C1549.25 366.626 1550.23 369.387 1551.54 372.246C1552.85 375.105 1554.41 377.81 1556.21 380.362C1558.01 382.915 1559.94 385.034 1561.98 386.72C1564.16 388.522 1566.63 389.939 1569.39 390.973C1572.15 392.006 1574.92 392.308 1577.7 391.88C1580.48 391.451 1582.98 389.898 1585.19 387.222C1586.99 385.038 1587.91 382.662 1587.96 380.095C1588.01 377.528 1587.49 374.82 1586.4 371.972C1585.32 369.124 1583.96 366.254 1582.32 363.362C1580.68 360.47 1579.09 357.443 1577.56 354.281C1576.02 351.119 1574.86 347.824 1574.08 344.396C1573.3 340.967 1573.23 337.503 1573.86 334.003C1574.5 330.504 1576.27 326.993 1579.18 323.471C1582.67 319.244 1586.68 316.394 1591.21 314.923C1595.74 313.451 1600.5 313.238 1605.5 314.283C1610.5 315.329 1615.35 317.671 1620.04 321.309C1625.47 325.785 1629.56 330.259 1632.32 334.73C1635.09 339.201 1637.19 343.574 1638.64 347.847L1626.23 353.414Z"/>
</g>
<g fill="#000000" opacity="1" stroke="none">
<path d="M825.584 1289.58L757.397 1362.36L745.799 1351.5L774.835 1320.5L739.042 1286.97L710.006 1317.97L698.309 1307.01L766.496 1234.22L778.194 1245.18L749.439 1275.87L785.232 1309.41L813.987 1278.71L825.584 1289.58Z"/>
<path d="M770.639 1373.45L865.831 1312.88L866.621 1313.43L844.126 1423.99L829 1413.59L848.203 1331.02L861.919 1331.14L783.508 1382.3L770.639 1373.45ZM814.479 1358.54L842.587 1377.87L839.339 1392.26L802.765 1367.11L814.479 1358.54Z"/>
<path d="M936.595 1473.51L899.455 1373.52L902.833 1377.26L873.586 1439.5L858.996 1432.54L903.423 1339.44L904.164 1339.79L940.191 1439.25L937.325 1436.67L967.108 1373.62L981.451 1380.46L936.966 1473.69L936.595 1473.51Z"/>
<path d="M964.585 1479.75L992.718 1384.06L1019.93 1392.06C1029.39 1394.85 1037.05 1398.67 1042.9 1403.53C1048.75 1408.39 1053.04 1413.8 1055.77 1419.74C1058.5 1425.68 1059.95 1431.84 1060.12 1438.22C1060.29 1444.6 1059.51 1450.73 1057.78 1456.6C1055.67 1463.79 1052.51 1469.85 1048.29 1474.8C1044.08 1479.75 1039.16 1483.61 1033.53 1486.38C1027.91 1489.16 1021.91 1490.77 1015.54 1491.23C1009.17 1491.69 1002.79 1490.98 996.392 1489.1L964.585 1479.75ZM984.291 1469.55L997.96 1473.57C1003.04 1475.06 1007.9 1475.71 1012.53 1475.5C1017.16 1475.29 1021.44 1474.26 1025.36 1472.41C1029.28 1470.57 1032.7 1467.84 1035.62 1464.22C1038.54 1460.61 1040.78 1456.17 1042.32 1450.91C1044.07 1444.95 1044.59 1439.56 1043.87 1434.73C1043.14 1429.9 1041.58 1425.68 1039.16 1422.07C1036.75 1418.45 1033.85 1415.46 1030.45 1413.08C1027.06 1410.7 1023.52 1408.97 1019.84 1407.89L1003.81 1403.17L984.291 1469.55Z"/>
<path d="M1101.92 1479L1073.68 1407.56L1093.12 1409.98L1114.35 1466.75L1109.56 1466.42L1143.7 1416.28L1163.14 1418.7L1117.69 1480.97L1113.69 1513.05L1097.92 1511.09L1101.92 1479Z"/>
<path d="M1167.83 1518.81L1163.54 1415.6L1163.68 1415.6L1220.49 1489.34L1213.58 1488.12L1263.88 1411.44L1264.15 1411.43L1268.43 1514.64L1252.56 1515.3L1249.77 1448.09L1251.2 1456.12L1217.18 1508.67L1216.91 1508.69L1178.1 1459.15L1180.53 1451.64L1183.29 1518.17L1167.83 1518.81Z"/>
<path d="M1285.43 1512.05L1307.29 1401.36L1308.23 1401.16L1372.72 1493.74L1354.75 1497.51L1308.25 1426.63L1317.81 1416.79L1300.72 1508.84L1285.43 1512.05ZM1304.89 1470.03L1338.28 1463.03L1346.46 1475.31L1303.01 1484.42L1304.89 1470.03Z"/>
<path d="M1472.38 1461.03L1374.4 1418.87L1379.43 1419.01L1404.28 1483.14L1389.17 1488.89L1352.48 1392.47L1353.24 1392.18L1450.08 1434.78L1446.23 1435.07L1421.17 1369.99L1436.03 1364.34L1472.77 1460.88L1472.38 1461.03Z"/>
<path d="M1511.62 1320.3L1524.44 1310.68L1575.1 1378.18L1614.33 1348.74L1623.54 1361.01L1571.49 1400.07L1511.62 1320.3Z"/>
<path d="M1570.16 1275.09L1581.69 1263.96L1640.32 1324.66L1675.6 1290.59L1686.26 1301.63L1639.45 1346.83L1570.16 1275.09Z"/>
<path d="M1738.96 1224.61C1738.83 1226.38 1738.45 1228.84 1737.8 1232C1737.15 1235.16 1736 1238.63 1734.35 1242.39C1732.69 1246.15 1730.33 1249.9 1727.24 1253.63C1722.33 1259.65 1716.89 1264.25 1710.92 1267.43C1704.94 1270.61 1698.81 1272.44 1692.53 1272.93C1686.25 1273.42 1680.04 1272.71 1673.91 1270.81C1667.78 1268.9 1662.07 1265.85 1656.78 1261.64C1650.85 1256.92 1646.16 1251.67 1642.71 1245.88C1639.25 1240.1 1637.09 1234.06 1636.21 1227.76C1635.33 1221.45 1635.77 1215.15 1637.52 1208.84C1639.27 1202.53 1642.37 1196.59 1646.8 1191.01C1650.73 1186.08 1654.9 1182.2 1659.32 1179.35C1663.74 1176.51 1667.83 1174.42 1671.58 1173.09L1679.34 1187.32C1676.39 1188.24 1673.04 1189.66 1669.29 1191.58C1665.55 1193.5 1662.17 1196.35 1659.15 1200.14C1656.42 1203.57 1654.5 1207.41 1653.39 1211.67C1652.28 1215.92 1652.06 1220.23 1652.72 1224.61C1653.38 1228.99 1654.83 1233.21 1657.08 1237.28C1659.33 1241.34 1662.42 1244.94 1666.35 1248.07C1670.43 1251.31 1674.68 1253.67 1679.1 1255.15C1683.53 1256.63 1687.9 1257.19 1692.21 1256.83C1696.53 1256.47 1700.67 1255.22 1704.65 1253.08C1708.64 1250.93 1712.25 1247.83 1715.49 1243.75C1718.67 1239.75 1720.85 1235.73 1722.02 1231.7C1723.18 1227.67 1723.72 1224.1 1723.63 1220.99L1738.96 1224.61Z"/>
</g>
</g>
<g id="Lightbulb" vectornator:layerName="Lightbulb">
<path d="M1287 473.849C1287.35 500.429 1277.32 527.188 1256.62 548.354" fill="none" opacity="1" stroke="#000000" stroke-linecap="round" stroke-linejoin="miter" stroke-width="5.07459"/>
<path d="M1097.1 479.992C1095.82 455.435 1103.99 430.397 1121.89 410.815C1157.35 372.032 1217.53 369.335 1256.32 404.792C1276.53 423.271 1286.94 448.467 1287.26 473.849" fill="none" opacity="1" stroke="#000000" stroke-linecap="round" stroke-linejoin="miter" stroke-width="5.07459"/>
<path d="M1127.92 545.238C1108.72 527.684 1098.36 504.069 1097.1 479.992" fill="none" opacity="1" stroke="#000000" stroke-linecap="round" stroke-linejoin="miter" stroke-width="5.07459"/>
<path d="M1127.92 545.238C1108.72 527.684 1098.36 504.069 1097.1 479.992" fill="none" opacity="1" stroke="#000000" stroke-linecap="round" stroke-linejoin="miter" stroke-width="5.07459"/>
<path d="M1135.11 552.183C1143.93 557.815 1148.83 568.814 1148.83 575.575" fill="none" opacity="1" stroke="#000000" stroke-linecap="round" stroke-linejoin="miter" stroke-width="5.07459"/>
<path d="M1146.63 575.719C1143.64 575.719 1140.86 580.422 1141.45 583.355C1141.87 585.459 1145.81 585.177 1145.81 586.901C1145.81 587.736 1141.15 594.61 1143.09 595.901C1144 596.511 1146.8 595.524 1147.45 596.174C1147.71 596.429 1146 597.627 1145.81 597.81C1144.59 599.03 1143.39 600.108 1143.09 601.901C1142.57 604.974 1145.35 607.146 1148 606.265" fill="none" opacity="1" stroke="#000000" stroke-linecap="round" stroke-linejoin="miter" stroke-width="5.07459"/>
<path d="M1128.58 545.72C1130.62 548.225 1134.8 551.93 1136.89 553.616" fill="none" opacity="1" stroke="#000000" stroke-linecap="round" stroke-linejoin="miter" stroke-width="5.07459"/>
<path d="M1237.95 577.418C1240.94 577.418 1243.72 582.121 1243.13 585.054C1242.71 587.158 1238.77 586.876 1238.77 588.6C1238.77 589.435 1243.43 596.309 1241.49 597.6C1240.58 598.21 1237.78 597.223 1237.13 597.873C1236.87 598.128 1238.58 599.326 1238.77 599.509C1239.99 600.729 1241.19 601.807 1241.49 603.6C1242.01 606.673 1239.23 608.845 1236.58 607.964" fill="none" opacity="1" stroke="#000000" stroke-linecap="round" stroke-linejoin="miter" stroke-width="5.07459"/>
<path d="M1147.72 605.446C1144.73 605.446 1141.95 610.149 1142.54 613.083C1142.96 615.187 1146.91 614.904 1146.91 616.628C1146.91 617.463 1142.24 624.337 1144.18 625.628C1145.09 626.238 1147.89 625.252 1148.54 625.901C1148.8 626.156 1147.09 627.354 1146.91 627.537C1145.69 628.757 1144.48 629.835 1144.18 631.628C1143.67 634.702 1146.44 636.873 1149.09 635.992" fill="none" opacity="1" stroke="#000000" stroke-linecap="round" stroke-linejoin="miter" stroke-width="5.07459"/>
<path d="M1238.1 608.077C1241.1 608.077 1243.87 612.779 1243.29 615.713C1242.87 617.817 1238.92 617.535 1238.92 619.259C1238.92 620.093 1243.59 626.967 1241.65 628.259C1240.73 628.869 1237.94 627.882 1237.29 628.531C1237.03 628.786 1238.74 629.985 1238.92 630.168C1240.14 631.388 1241.35 632.466 1241.65 634.259C1242.16 637.332 1239.38 639.503 1236.74 638.622" fill="none" opacity="1" stroke="#000000" stroke-linecap="round" stroke-linejoin="miter" stroke-width="5.07459"/>
<path d="M1135.11 552.183C1143.93 557.815 1148.83 568.814 1148.83 575.575" fill="none" opacity="1" stroke="#000000" stroke-linecap="round" stroke-linejoin="miter" stroke-width="5.07459"/>
<path d="M1128.58 545.72C1130.62 548.225 1134.8 551.93 1136.89 553.616" fill="none" opacity="1" stroke="#000000" stroke-linecap="round" stroke-linejoin="miter" stroke-width="5.07459"/>
<path d="M1251.26 553.774C1242.45 559.406 1237.55 570.405 1237.55 577.166" fill="none" opacity="1" stroke="#000000" stroke-linecap="round" stroke-linejoin="miter" stroke-width="5.07459"/>
<path d="M1250.26 554.649C1241.45 560.281 1236.07 569.759 1236.07 576.519" fill="none" opacity="1" stroke="#000000" stroke-linecap="round" stroke-linejoin="miter" stroke-width="5.07459"/>
<path d="M1256.8 548.186C1254.75 550.691 1250.57 554.396 1248.49 556.082" fill="none" opacity="1" stroke="#000000" stroke-linecap="round" stroke-linejoin="miter" stroke-width="5.07459"/>
</g>
<g id="Bulb-2" vectornator:layerName="Bulb 2">
<path d="M1147.36 636.408L1237.73 637.873" fill="none" opacity="1" stroke="#000000" stroke-linecap="round" stroke-linejoin="miter" stroke-width="5.07459"/>
<path d="M1174.23 643.073L1218.68 643.073" fill="none" opacity="1" stroke="#000000" stroke-linecap="round" stroke-linejoin="miter" stroke-width="12.8651"/>
<path d="M1148.28 597.449L1236.44 598.723" fill="none" opacity="1" stroke="#000000" stroke-linecap="round" stroke-linejoin="miter" stroke-width="2.32616"/>
<path d="M1146.67 587.287L1238.43 589.514" fill="none" opacity="1" stroke="#000000" stroke-linecap="round" stroke-linejoin="miter" stroke-width="2.32616"/>
<path d="M1147.68 574.768L1240.56 577.416" fill="none" opacity="1" stroke="#000000" stroke-linecap="round" stroke-linejoin="miter" stroke-width="2.32616"/>
<path d="M1150.51 575.202C1150.51 572.834 1155.9 571.222 1157.78 569.92C1161.74 567.169 1164.07 563.688 1165.11 560.695C1169.69 547.509 1174.54 525.053 1172.23 511.186C1171.29 505.54 1165.79 490.883 1157.23 494.308C1152.5 496.201 1149.92 504.908 1149.72 508.835C1149.12 520.849 1153.52 532.565 1168.11 532.565C1191.52 532.565 1207.13 497.847 1208.62 478.555C1209.29 469.779 1208.28 453.542 1196.99 451.55C1187.61 449.895 1183.78 466.269 1182.36 472.554C1178.56 489.372 1182.93 522.503 1199.99 531.44C1216.41 540.041 1240.52 521.494 1242.37 504.81C1243.21 497.251 1240.13 483.616 1229.99 485.306C1222.08 486.625 1220.41 497.276 1218.74 503.685C1214.48 520.03 1210.06 540.146 1217.62 556.194C1220.05 561.375 1224.03 568.61 1228.12 572.697C1229.1 573.675 1232.72 577.866 1233.47 576.379" fill="none" opacity="1" stroke="#000000" stroke-linecap="round" stroke-linejoin="miter" stroke-width="5.07459"/>
<path d="M1147.45 606.715L1236.78 607.86" fill="none" opacity="1" stroke="#000000" stroke-linecap="round" stroke-linejoin="miter" stroke-width="2.32616"/>
<path d="M1148 617.466L1239.45 618.568" fill="none" opacity="1" stroke="#000000" stroke-linecap="round" stroke-linejoin="miter" stroke-width="2.32616"/>
<path d="M1147.45 626.2L1237.8 627.177" fill="none" opacity="1" stroke="#000000" stroke-linecap="round" stroke-linejoin="miter" stroke-width="2.32616"/>
</g>
<g id="Hammer" vectornator:layerName="Hammer">
<g opacity="1">
<path d="M1485.54 781.606L1499.71 781.606C1505.89 781.606 1510.9 788.591 1510.9 797.207L1510.9 962.258C1510.9 970.874 1505.89 977.859 1499.71 977.859L1485.54 977.859C1479.36 977.859 1474.35 970.874 1474.35 962.258L1474.35 875.797L1474.35 797.207C1474.35 788.591 1479.36 781.606 1485.54 781.606Z" fill="#000000" fill-rule="nonzero" opacity="1" stroke="#000000" stroke-linecap="round" stroke-linejoin="miter" stroke-width="5.07459"/>
<path d="M1481.12 754.799L1481.74 783.593" fill="none" opacity="1" stroke="#000000" stroke-linecap="round" stroke-linejoin="miter" stroke-width="5.07459"/>
<path d="M1502.28 753.4L1502.87 780.447" fill="none" opacity="1" stroke="#000000" stroke-linecap="round" stroke-linejoin="miter" stroke-width="5.07459"/>
<path d="M1442.26 717.694C1445.84 712.929 1451.34 709.878 1457.5 709.878C1464.03 709.878 1469.82 713.308 1473.36 718.574" fill="none" opacity="1" stroke="#000000" stroke-linecap="round" stroke-linejoin="miter" stroke-width="5.07459"/>
<path d="M1472.73 745.206C1467.61 750.785 1464.8 751.539 1457.5 751.539C1452.68 751.539 1448.28 749.678 1444.88 746.593C1440.66 742.772 1440.83 739.137 1440.83 732.772C1440.83 727.848 1439.59 721.259 1442.26 717.694" fill="none" opacity="1" stroke="#000000" stroke-linecap="round" stroke-linejoin="miter" stroke-width="5.07459"/>
<path d="M1472.94 745.056C1477.41 746.151 1480.4 747.81 1480.87 753.05C1480.92 753.609 1481.4 754.629 1481.05 755.079" fill="none" opacity="1" stroke="#000000" stroke-linecap="round" stroke-linejoin="miter" stroke-width="5.07459"/>
<path d="M1473.38 719.165C1475.45 719.165 1474.81 724.04 1477.04 723.701C1481.39 723.038 1485.39 719.251 1489.2 717.222C1492.94 715.231 1496.8 713.358 1500.61 711.552C1517.91 703.364 1549.49 704.502 1565.71 714.63C1572.66 718.965 1586.71 731.544 1586.71 741.196" fill="none" opacity="1" stroke="#000000" stroke-linecap="round" stroke-linejoin="miter" stroke-width="5.07459"/>
<path d="M1501.83 752.697C1502.78 750.672 1501.48 749.906 1501.68 747.837C1502.03 744.072 1504.95 736.838 1507.76 734.392C1524.44 719.861 1548.65 724.772 1567.54 731.476C1571.75 732.972 1584.34 738.751 1586.4 743.139" fill="none" opacity="1" stroke="#000000" stroke-linecap="round" stroke-linejoin="miter" stroke-width="5.07459"/>
</g>
</g>
<g id="Screwdriver" vectornator:layerName="Screwdriver">
<path d="M1162.18 1203.09C1162.18 1151.87 1175.15 1110.34 1191.14 1110.34C1207.13 1110.34 1220.1 1151.87 1220.1 1203.09C1220.1 1254.31 1207.13 1295.83 1191.14 1295.83C1175.15 1295.83 1162.18 1254.31 1162.18 1203.09Z" fill="#000000" fill-rule="nonzero" opacity="1" stroke="#000000" stroke-linecap="round" stroke-linejoin="miter" stroke-width="5.07459"/>
<path d="M1175.63 1153.72C1178.84 1143.04 1184.03 1125.14 1185.02 1112.77C1185.36 1108.54 1185.59 1099.55 1185.25 1095.33C1185.16 1094.15 1185.31 1080.83 1184.79 1083.22" fill="none" opacity="1" stroke="#000000" stroke-linecap="round" stroke-linejoin="miter" stroke-width="21.3819"/>
<path d="M1206.46 1151.81C1203.5 1141.38 1197.08 1124.15 1196.16 1112.08C1195.84 1107.94 1195.63 1099.16 1195.95 1095.04C1196.04 1093.88 1195.9 1080.88 1196.37 1083.22" fill="none" opacity="1" stroke="#000000" stroke-linecap="round" stroke-linejoin="miter" stroke-width="21.3819"/>
<path d="M1183.55 1022.54L1183.32 1079.44" fill="none" opacity="1" stroke="#000000" stroke-linecap="square" stroke-linejoin="miter" stroke-width="2.22713"/>
<path d="M1197.34 1022.58L1196.8 1078.87" fill="none" opacity="1" stroke="#000000" stroke-linecap="square" stroke-linejoin="miter" stroke-width="2.22713"/>
<path d="M1197.61 1020.78L1202.43 1005.58" fill="none" opacity="1" stroke="#000000" stroke-linecap="square" stroke-linejoin="miter" stroke-width="2.22713"/>
<path d="M1178.25 1004.23L1178.63 978.031" fill="none" opacity="1" stroke="#000000" stroke-linecap="square" stroke-linejoin="miter" stroke-width="2.22713"/>
<path d="M1202.68 1003.93L1203.29 978.905" fill="none" opacity="1" stroke="#000000" stroke-linecap="square" stroke-linejoin="miter" stroke-width="2.22713"/>
<path d="M1178.68 977.563L1203.25 978.602" fill="none" opacity="1" stroke="#000000" stroke-linecap="square" stroke-linejoin="miter" stroke-width="2.22713"/>
<path d="M1185.94 1073.23L1194.94 1072.87" fill="none" opacity="1" stroke="#000000" stroke-linecap="square" stroke-linejoin="miter" stroke-width="2.9676"/>
<path d="M1183.28 1020.82L1178.46 1005.62" fill="none" opacity="1" stroke="#000000" stroke-linecap="square" stroke-linejoin="miter" stroke-width="2.22713"/>
</g>
<g id="Wrench" vectornator:layerName="Wrench">
<path d="M865.11 808.255L866.654 944.45" fill="none" opacity="1" stroke="#000000" stroke-linecap="square" stroke-linejoin="miter" stroke-width="34.7751"/>
<g opacity="1">
<path d="M836.711 716.564C827.765 722.179 821.415 751.095 828.993 769.612C839.639 795.632 865.825 797.863 886.529 786.069C895.031 781.226 900.076 772.299 900.386 761.675C900.839 746.198 894.773 727.406 890.563 723.921" fill="none" opacity="1" stroke="#000000" stroke-linecap="round" stroke-linejoin="miter" stroke-width="20.7671"/>
<path d="M836.904 720.824L837.605 776.389" fill="none" opacity="1" stroke="#000000" stroke-linecap="round" stroke-linejoin="miter" stroke-width="20.7671"/>
<path d="M890.563 727.987L892.668 776.195" fill="none" opacity="1" stroke="#000000" stroke-linecap="round" stroke-linejoin="miter" stroke-width="20.7671"/>
<path d="M836.009 771.549C822.562 782.5 885.301 791.684 892.317 773.097" fill="none" opacity="1" stroke="#000000" stroke-linecap="round" stroke-linejoin="miter" stroke-width="20.7671"/>
</g>
<g opacity="1">
<path d="M836.112 987.468C836.112 971.032 849.835 957.707 866.763 957.707C883.69 957.707 897.413 971.032 897.413 987.468C897.413 1003.9 883.69 1017.23 866.763 1017.23C849.835 1017.23 836.112 1003.9 836.112 987.468Z" fill="none" opacity="1" stroke="#000000" stroke-linecap="round" stroke-linejoin="miter" stroke-width="11.9239"/>
<path d="M846.601 987.758C846.601 977.041 855.549 968.353 866.587 968.353C877.625 968.353 886.573 977.041 886.573 987.758C886.573 998.475 877.625 1007.16 866.587 1007.16C855.549 1007.16 846.601 998.475 846.601 987.758Z" fill="none" opacity="1" stroke="#000000" stroke-linecap="round" stroke-linejoin="miter" stroke-width="1.01212"/>
</g>
</g>
</svg>
